HIERARCHY
ROOT Hips
{
    OFFSET 0.000000 0.000000 0.000000
    CHANNELS 6 Xposition Yposition Zposition Zrotation Xrotation Yrotation
    JOINT Spine
    {
        OFFSET -0.000000 8.172037 0.000000
        CHANNELS 3 Zrotation Xrotation Yrotation
        JOINT Spine1
        {
            OFFSET -0.000000 18.392342 0.000000
            CHANNELS 3 Zrotation Xrotation Yrotation
            JOINT Neck
            {
                OFFSET -0.000000 18.316809 1.665164
                CHANNELS 3 Zrotation Xrotation Yrotation
                JOINT Head
                {
                    OFFSET -0.000000 13.952258 -1.993180
                    CHANNELS 3 Zrotation Xrotation Yrotation
                    End Site
                    {
                        OFFSET -0.000000 24.914745 0.000000
                    }
                }
            }
            JOINT LeftShoulder
            {
                OFFSET 4.035833 16.062790 -0.310290
                CHANNELS 3 Zrotation Xrotation Yrotation
                JOINT LeftArm
                {
                    OFFSET 12.395579 0.000000 0.000000
                    CHANNELS 3 Zrotation Xrotation Yrotation
                    JOINT LeftForeArm
                    {
                        OFFSET 26.414022 0.000000 0.000000
                        CHANNELS 3 Zrotation Xrotation Yrotation
                        JOINT LeftHand
                        {
                            OFFSET 28.641636 0.000000 0.000000
                            CHANNELS 3 Zrotation Xrotation Yrotation
                            End Site
                            {
                                OFFSET 14.948848 0.000000 0.000000
                            }
                        }
                    }
                }
            }
            JOINT RightShoulder
            {
                OFFSET -3.919767 16.062790 -0.310290
                CHANNELS 3 Zrotation Xrotation Yrotation
                JOINT RightArm
                {
                    OFFSET -12.395579 0.000000 0.000000
                    CHANNELS 3 Zrotation Xrotation Yrotation
                    JOINT RightForeArm
                    {
                        OFFSET -26.414022 0.000000 0.000000
                        CHANNELS 3 Zrotation Xrotation Yrotation
                        JOINT RightHand
                        {
                            OFFSET -28.641636 0.000000 0.000000
                            CHANNELS 3 Zrotation Xrotation Yrotation
                            End Site
                            {
                                OFFSET -14.948848 0.000000 0.000000
                            }
                        }
                    }
                }
            }
        }
    }
    JOINT LeftUpLeg
    {
        OFFSET 9.965899 0.000000 0.000000
        CHANNELS 3 Zrotation Xrotation Yrotation
        JOINT LeftLeg
        {
            OFFSET -0.000000 -49.671295 0.000000
            CHANNELS 3 Zrotation Xrotation Yrotation
            JOINT LeftFoot
            {
                OFFSET -0.000000 -36.155865 0.000000
                CHANNELS 3 Zrotation Xrotation Yrotation
                JOINT LeftToeBase
                {
                    OFFSET -0.000000 -6.477834 14.948848
                    CHANNELS 3 Zrotation Xrotation Yrotation
                    End Site
                    {
                        OFFSET -0.000000 0.000000 3.986359
                    }
                }
            }
        }
    }
    JOINT RightUpLeg
    {
        OFFSET -9.965899 0.000000 0.000000
        CHANNELS 3 Zrotation Xrotation Yrotation
        JOINT RightLeg
        {
            OFFSET -0.000000 -49.671295 0.000000
            CHANNELS 3 Zrotation Xrotation Yrotation
            JOINT RightFoot
            {
                OFFSET -0.000000 -36.155865 0.000000
                CHANNELS 3 Zrotation Xrotation Yrotation
                JOINT RightToeBase
                {
                    OFFSET -0.000000 -6.477834 14.948848
                    CHANNELS 3 Zrotation Xrotation Yrotation
                    End Site
                    {
                        OFFSET -0.000000 0.000000 3.986359
                    }
                }
            }
        }
    }
}
MOTION
Frames:    11
Frame Time:    0.010000
-13.045974    95.939255    38.452194    -0.878634    -2.333524    -172.176163    -6.365440    -5.373332    -2.304325    1.925869    -0.725323    -1.993137    4.552719    18.751009    -1.448152    2.953293    -9.064636    -0.749945    9.048841    9.086903    4.728484    -69.877037    29.039518    -21.097427    -17.094065    5.921445    -32.719738    -5.964561    0.731114    2.725474    -5.677844    7.920692    0.719920    66.990936    13.798122    7.044266    20.730516    8.329245    32.392399    1.391849    2.264219    -0.029210    6.304744    -7.372072    7.742191    -5.436656    18.612829    1.063126    1.455408    -10.998698    -4.846779    0.000000    0.000000    0.000000    -8.561314    -3.494700    2.662400    8.429620    14.557014    3.691008    -16.646891    -11.508683    -4.177573    0.000000    0.000000    0.000000    
-13.080221    95.945267    38.421646    -0.946440    -2.317744    -172.257614    -6.319119    -5.342862    -2.296035    1.775180    -0.785947    -1.988731    4.594608    18.738089    -1.445507    2.848913    -9.010921    -0.771001    9.038639    9.073441    4.664891    -69.742645    30.730541    -21.262049    -15.618716    5.835204    -33.248501    -6.511436    1.064466    1.507372    -5.641346    8.003282    0.752744    67.128395    13.760560    7.073662    20.841156    8.330737    32.685139    1.844981    2.178811    0.281337    6.254661    -7.095732    7.605779    -5.622477    18.099449    1.405432    1.458995    -10.849981    -4.975601    0.000000    0.000000    0.000000    -8.638662    -3.519524    2.501846    8.366619    14.715275    3.919749    -16.624422    -11.577369    -4.176528    0.000000    0.000000    0.000000    
-13.114193    95.947556    38.402218    -1.008024    -2.329543    -172.372726    -6.292745    -5.347836    -2.277007    1.664357    -0.816005    -1.970977    4.660087    18.727448    -1.435143    2.687510    -9.001554    -0.794708    9.064566    9.020069    4.593976    -69.722572    31.440725    -21.436579    -14.426284    6.391003    -33.856564    -8.578508    1.834735    2.039093    -5.624219    8.043243    0.771188    67.216446    13.734286    7.124325    21.036589    8.730864    32.994648    1.462940    2.454831    -0.135773    6.175289    -6.912186    7.666780    -5.636020    17.765366    1.248054    1.475290    -10.772408    -4.825090    0.000000    0.000000    0.000000    -8.702706    -3.610444    2.330510    8.278237    14.922567    4.121706    -16.585741    -11.660524    -4.112392    0.000000    0.000000    0.000000    
-13.149097    95.944481    38.375622    -1.050689    -2.311667    -172.491318    -6.232038    -5.306545    -2.269735    1.510163    -0.883710    -1.968993    4.821071    18.721010    -1.403487    2.441501    -8.964296    -0.812940    9.151904    9.030134    4.601029    -69.896431    33.540802    -21.396969    -12.538461    5.174072    -34.842361    -9.321507    1.091600    1.689494    -5.554391    8.110773    0.793309    67.275963    13.840138    7.208339    21.027117    8.965109    33.298153    1.806279    2.631959    -0.184111    6.090270    -6.831487    7.612666    -5.566283    17.733002    1.145977    1.415269    -10.813496    -4.613083    0.000000    0.000000    0.000000    -8.749073    -3.653436    2.340155    8.260751    15.060107    4.148179    -16.576199    -11.727367    -4.092206    0.000000    0.000000    0.000000    
-13.185915    95.945396    38.355434    -1.088516    -2.306098    -172.643219    -6.170693    -5.311823    -2.241240    1.343898    -0.864000    -1.944627    5.028177    18.675415    -1.362071    2.172477    -8.973795    -0.825931    9.294276    9.013170    4.615254    -69.768196    31.949451    -21.950266    -14.641686    6.482335    -34.022274    -8.590524    1.889063    1.337824    -5.442395    8.106627    0.776909    67.235870    13.887501    7.304159    21.537430    8.693658    33.552277    1.207574    2.153577    0.412597    5.989764    -6.818902    7.562855    -5.444194    17.831898    1.173564    1.279136    -10.901482    -4.507561    0.000000    0.000000    0.000000    -8.793076    -3.709832    2.435633    8.265361    15.147886    4.083497    -16.580074    -11.757554    -4.042133    0.000000    0.000000    0.000000    
-13.223304    95.943863    38.341724    -1.098842    -2.321949    -172.819839    -6.107151    -5.370379    -2.214199    1.244557    -0.791300    -1.918930    5.160836    18.593861    -1.292060    1.943055    -8.953629    -0.804585    9.389648    8.990544    4.665934    -69.971367    32.875328    -22.075720    -13.369967    6.903516    -34.871006    -9.392799    2.489261    2.558379    -5.370980    8.063672    0.769398    67.222229    14.016788    7.386018    21.544142    9.101302    33.922749    2.097378    2.476470    -0.315588    5.955809    -6.821228    7.576268    -5.409978    17.924761    1.243771    1.245552    -10.982856    -4.447135    0.000000    0.000000    0.000000    -8.830554    -3.773993    2.623419    8.332401    15.174793    4.009696    -16.603714    -11.742022    -4.065331    0.000000    0.000000    0.000000    
-13.258455    95.942390    38.325531    -1.100230    -2.317581    -172.987640    -6.021612    -5.405799    -2.198127    1.132488    -0.722176    -1.906478    5.269886    18.539915    -1.230614    1.744801    -8.956133    -0.784263    9.473310    8.961315    4.736763    -70.042679    33.219975    -22.214382    -14.014804    5.228194    -34.867657    -9.238119    0.658316    1.878774    -5.316830    8.030505    0.773009    67.193634    14.075708    7.485863    21.764484    9.358688    34.215466    2.118494    2.602041    -0.496807    5.918340    -6.802865    7.560072    -5.315810    17.973028    1.269375    1.151585    -11.021089    -4.455019    0.000000    0.000000    0.000000    -8.851125    -3.789366    2.733261    8.349184    15.150872    3.980142    -16.588102    -11.737816    -3.991662    0.000000    0.000000    0.000000    
-13.290273    95.939102    38.301796    -1.099455    -2.291817    -173.201294    -5.963388    -5.452281    -2.166095    1.118784    -0.614615    -1.875897    5.315710    18.453348    -1.145401    1.524758    -8.923227    -0.747580    9.467259    8.917691    4.803988    -70.059570    33.676529    -22.330261    -13.697826    5.248597    -35.211338    -9.383852    0.729941    1.906408    -5.367596    7.997332    0.774575    67.234085    14.166559    7.614663    21.789526    9.865217    34.494274    2.196334    3.040650    -0.873949    5.879381    -6.705972    7.512729    -5.242836    17.916887    1.353510    1.020639    -11.057616    -4.457253    0.000000    0.000000    0.000000    -8.874496    -3.771347    2.966649    8.404199    15.088150    3.984641    -16.579138    -11.724297    -4.017282    0.000000    0.000000    0.000000    
-13.300371    95.934464    38.288151    -1.091143    -2.277561    -173.426285    -5.988021    -5.487484    -2.136317    1.226373    -0.535966    -1.843351    5.287818    18.451162    -1.069318    1.373339    -8.984559    -0.701513    9.405416    8.858720    4.841975    -70.119377    33.937542    -22.347118    -13.455001    5.573876    -35.335369    -9.250974    1.155135    1.483714    -5.423755    7.963699    0.808500    67.244652    14.189559    7.721866    21.914141    10.154504    34.615276    2.298930    3.269466    -0.763018    5.867760    -6.582818    7.415657    -5.216661    17.766096    1.329717    0.960235    -11.114753    -4.241585    0.000000    0.000000    0.000000    -8.855227    -3.791255    3.174617    8.389045    15.061681    3.935220    -16.529837    -11.753746    -3.938296    0.000000    0.000000    0.000000    
-13.301511    95.933571    38.274879    -1.082477    -2.249015    -173.663040    -6.051354    -5.501237    -2.104405    1.382681    -0.469680    -1.807778    5.241192    18.419991    -0.988086    1.263131    -8.982759    -0.643664    9.335031    8.809583    4.893457    -70.210243    34.107014    -22.348909    -13.077478    6.020793    -35.706799    -9.504989    1.628387    2.055013    -5.492655    7.939956    0.856334    67.266060    14.210138    7.836185    21.996424    10.423197    34.729767    2.583472    3.489057    -0.762621    5.875435    -6.396579    7.279733    -5.258749    17.521114    1.306701    0.945269    -11.168237    -3.964527    0.000000    0.000000    0.000000    -8.825759    -3.802496    3.411590    8.384603    15.041014    3.878584    -16.500977    -11.777463    -3.889170    0.000000    0.000000    0.000000    
-13.313669    95.942215    38.275349    -1.086518    -2.253832    -173.869827    -6.084066    -5.535003    -2.080114    1.469991    -0.410474    -1.780488    5.173158    18.395096    -0.914557    1.223132    -8.975264    -0.578582    9.276891    8.749972    4.897309    -70.378090    34.982269    -22.131964    -12.397180    4.686137    -36.154762    -10.013010    0.483444    1.641356    -5.528021    7.893304    0.891651    67.295662    14.209778    7.900436    22.107653    10.706379    34.802052    2.692871    3.729331    -0.540059    5.845360    -6.256780    7.161371    -5.265981    17.285097    1.301457    1.017630    -11.170441    -3.740412    0.000000    0.000000    0.000000    -8.823906    -3.862781    3.574078    8.375437    15.059733    3.820144    -16.435816    -11.790655    -3.818089    0.000000    0.000000    0.000000    
